<svg id="Layer_1" data-name="Layer 1" xmlns="http://www.w3.org/2000/svg" xmlns:xlink="http://www.w3.org/1999/xlink" viewBox="0 0 406.77 415.6"><defs><style>.cls-1,.cls-2,.cls-3{stroke:#000;stroke-miterlimit:10;stroke-width:4px;}.cls-1{fill:url(#New_Gradient_Swatch_3);}.cls-2{fill:url(#New_Gradient_Swatch_3-2);}.cls-3{fill:url(#New_Gradient_Swatch_3-3);}</style><linearGradient id="New_Gradient_Swatch_3" x1="2" y1="226.42" x2="390.14" y2="226.42" gradientUnits="userSpaceOnUse"><stop offset="0" stop-color="red"/><stop offset="0.17" stop-color="#ff942a"/><stop offset="0.26" stop-color="#ffd93e"/><stop offset="0.32" stop-color="#cbe44b"/><stop offset="0.38" stop-color="#97f058"/><stop offset="0.44" stop-color="#72f861"/><stop offset="0.48" stop-color="#5afd67"/><stop offset="0.51" stop-color="#52ff69"/><stop offset="0.76" stop-color="#2a98e8"/><stop offset="1" stop-color="#be36ff"/></linearGradient><linearGradient id="New_Gradient_Swatch_3-2" y1="122.84" x2="350.23" y2="122.84" xlink:href="#New_Gradient_Swatch_3"/><linearGradient id="New_Gradient_Swatch_3-3" x1="15.76" y1="345.82" x2="403.22" y2="345.82" xlink:href="#New_Gradient_Swatch_3"/></defs><title>casa</title><path d="M165.16,216c3.43,3.71,5.08,8.52,8.26,12.39a3.47,3.47,0,0,1,.65,3.37l20.55-.93-24.78-24.09-6.57,8.32A3.06,3.06,0,0,1,165.16,216Z" transform="translate(-48.78 -18.56)"/><polygon points="159.6 70.19 54.99 110.8 54.99 130.76 65.31 133.51 61.87 194.76 69.44 194.76 72.88 132.13 106.95 132.13 117.96 120.43 61.87 120.43 61.87 112.17 121.75 112.17 137.57 97.03 107.29 94.28 142.39 79.83 140.33 90.84 159.6 70.19"/><polygon points="182.31 201.51 182.31 206.46 232.55 206.46 232.55 200.95 192.63 200.95 196.07 113.55 222.91 113.55 222.91 200.95 229.79 200.95 229.79 110.11 188.84 110.45 185.4 201.3 182.31 201.51"/><polygon points="212.24 68.13 189.53 100.48 232.2 100.48 212.24 68.13"/><polygon points="243.56 129.38 240.8 212.65 253.88 212.65 283.47 178.24 243.56 129.38"/><polygon points="293.11 190.28 268.33 214.37 313.75 216.44 293.11 190.28"/><polygon points="172.67 129.38 175.43 212.65 162.35 212.65 132.76 178.24 172.67 129.38"/><polygon points="21.06 219.88 1.52 244.31 51.07 244.31 70.96 219.53 21.06 219.88"/><polygon points="109.36 206.46 88.03 231.92 128.63 231.92 109.36 206.46"/><polygon points="46.73 293.86 46.73 384.01 154.09 384.01 154.09 293.86 150.65 293.51 151.34 366.12 143.08 366.12 142.39 250.5 79.77 250.5 78.39 365.43 68.07 366.12 68.07 293.17 61.87 293.17 62.56 366.12 52.93 366.12 53.66 266.33 40.54 282.85 40.54 293.51 46.73 293.86"/><polygon class="cls-1" points="2 274.59 44.67 274.59 110.87 195.61 160.97 274.59 390.14 274.59 350.92 222.29 142.74 219.87 110.73 178.24 51.55 246.37 2 246.37 2 274.59"/><polygon class="cls-2" points="77.7 178.24 222.91 3.44 350.23 214.03 323.73 214.03 218.44 34.41 77.36 206.46 28.15 206.46 2 242.24 2 233.99 27.46 200.26 72.88 199.58 72.88 178.24 77.7 178.24"/><polygon class="cls-3" points="15.76 282.85 15.76 313.82 27.46 313.82 36.41 339.28 36.41 384.01 20.58 384.01 20.58 403.28 379.13 403.28 379.13 300.05 390.14 300.05 403.22 278.03 159.6 282.85 159.6 368.87 313.75 368.18 313.75 293.17 363.3 293.17 363.3 376.44 390.14 403.28 390.14 413.61 15.76 413.61 15.76 369.56 27.46 370.25 27.46 282.85 15.76 282.85"/></svg>