<svg id="Layer_1" data-name="Layer 1" xmlns="http://www.w3.org/2000/svg" xmlns:xlink="http://www.w3.org/1999/xlink" viewBox="0 0 246 121.93"><defs><style>.cls-1,.cls-4{fill:red;}.cls-1{stroke:#fff;}.cls-1,.cls-2,.cls-3,.cls-4{stroke-miterlimit:10;}.cls-2,.cls-3,.cls-4{stroke:#000;}.cls-2{fill:url(#New_Gradient_Swatch_3);}.cls-3{fill:url(#New_Gradient_Swatch_3-2);}</style><linearGradient id="New_Gradient_Swatch_3" x1="75.5" y1="151.19" x2="247.5" y2="151.19" gradientUnits="userSpaceOnUse"><stop offset="0" stop-color="red"/><stop offset="0.17" stop-color="#ff942a"/><stop offset="0.26" stop-color="#ffd93e"/><stop offset="0.32" stop-color="#cbe44b"/><stop offset="0.38" stop-color="#97f058"/><stop offset="0.44" stop-color="#72f861"/><stop offset="0.48" stop-color="#5afd67"/><stop offset="0.51" stop-color="#52ff69"/><stop offset="0.76" stop-color="#2a98e8"/><stop offset="1" stop-color="#be36ff"/></linearGradient><linearGradient id="New_Gradient_Swatch_3-2" x1="242.49" y1="131.49" x2="79.51" y2="131.49" xlink:href="#New_Gradient_Swatch_3"/></defs><title>iconeenviar</title><rect class="cls-1" x="0.5" y="18.43" width="112" height="5" rx="2.5" ry="2.5"/><path class="cls-2" d="M243.82,92.61H179.3c-19.54,0-39.08,0-58.62.1-13.06.1-26.18-.06-39.09-1.85a11.56,11.56,0,0,0-6.09,10.19v98.88A11.56,11.56,0,0,0,87.06,211.5H235.94a11.56,11.56,0,0,0,11.56-11.56V101.06A11.52,11.52,0,0,0,243.82,92.61Z" transform="translate(-2 -90.07)"/><path class="cls-3" d="M179.3,92.61c-19.54,0-39.08,0-58.62.1-13.6.11-27.25-.07-40.67-2.07l-.49,33.59,80.55,48.1L242,126.63l.5-34Z" transform="translate(-2 -90.07)"/><path class="cls-4" d="M221.32,163c-.92-3.79-5.67-7.68-10.58-7.55-3.85.1-7,2.64-8.81,5.31h0c-1.2-3-3.67-6.26-7.43-7.22-4.76-1.22-10.26,1.51-12,5-3,5.92,3.54,16.83,16.71,26.77C214.17,178.52,222.88,169.38,221.32,163Z" transform="translate(-2 -90.07)"/><rect class="cls-1" x="10.5" y="43.43" width="75" height="5" rx="2.5" ry="2.5"/><rect class="cls-1" x="19.5" y="68.43" width="75" height="5" rx="2.5" ry="2.5"/><rect class="cls-1" x="6.5" y="92.43" width="112" height="5" rx="2.5" ry="2.5"/></svg>