<svg id="logo" xmlns="http://www.w3.org/2000/svg" viewBox="0 0 500 500"><defs><style>.cls-1{fill:#c69c6d;}.cls-2{fill:red;}.cls-3{fill:#fc3;}.cls-4{fill:#6f6;}.cls-5{fill:#39f;}.cls-6{fill:#be36ff;}</style></defs><title>logofinal_marrom</title><path class="cls-1" d="M247.08,451.36a197.53,197.53,0,0,1-37.29-3.56A195,195,0,0,1,164.22,433H31a6,6,0,0,1-3.05-.83,6,6,0,0,1-3.63-5.51v-7.5a6,6,0,0,0,0-3.49v-50a6,6,0,0,1,6-6h5.91a6,6,0,0,1,1.27-.13H80.56a200.9,200.9,0,0,1-24.24-54L2.48,244a6,6,0,0,1,3.19-9.8L50.33,224A202.51,202.51,0,0,1,87.9,129.77v0a202.19,202.19,0,0,1,17.28-20.53l.14-.14c1.13-1.1,2.31-2.29,3.52-3.56l.13-.13a197.73,197.73,0,0,1,58.19-39.77h0a194.64,194.64,0,0,1,79.89-17c3.38,0,6.81.09,10.18.26a196.41,196.41,0,0,1,91.67,28.24c.6.36,1.19.74,1.78,1.11A6,6,0,0,1,353.48,80a201.34,201.34,0,0,1,66.37,70.91A204.92,204.92,0,0,1,440.7,294.09l56.4,53.53a6.11,6.11,0,0,1,.44.46,6,6,0,0,1,1.4,3.07h0a6,6,0,0,1-.36,3.05L483,396.09l-.35,1-7,19.93a6,6,0,0,1-5.66,4H351.92a195.26,195.26,0,0,1-104.84,30.36Zm-54.58-34a171,171,0,0,0,54.58,8.9h2.21a6,6,0,0,1,1.19-1.8l3.26-3.4h-16.6a5.66,5.66,0,0,1-.78.06l-4.13,0A6.29,6.29,0,0,1,226,415V404.15h-6.76v5.51a6,6,0,0,1-6,6h-4.36a6,6,0,0,1-6-6v-5.51H192.5ZM226,387.7l-.08-9.28a6,6,0,0,1,5.95-6.05l4.13,0a6,6,0,0,1,5.34,3.27l.77,1.5.74-1.51a6,6,0,0,1,5.34-3.36l4.13,0a6,6,0,0,1,6,5.51c.24-.28.49-.56.75-.82a16.3,16.3,0,0,1,5.08-3.5,16,16,0,0,1,6.34-1.34h.14a16,16,0,0,1,6.21,1.23,16.34,16.34,0,0,1,5.14,3.41q.4.39.77.81a6,6,0,0,1,5.94-5.61l4.13,0a6,6,0,0,1,5.84,4.62l.28,1.18.26-1.19a6,6,0,0,1,5.81-4.72l4.13,0a6,6,0,0,1,4,1.5,6,6,0,0,1,4-1.56h1.64l.76-2.58a6,6,0,0,1,1.63-2.67L335,353.26a6,6,0,0,1,1.2-.88l16-8.94-17-14.54a6,6,0,0,1,1-9.82L362,305l-6.83-13.91H340.56a6,6,0,0,1-5.51-3.61l-.19-.43-53.74,19.13-1.32,5A6,6,0,0,1,279,313l-4.89,7.38-.37,9.7a6,6,0,0,1-2.71,4.79L248.8,349.4,244.56,359a6,6,0,0,1-5.07,3.55l-16,1.09h-.41a6,6,0,0,1-2.08-.37l-6.24-2.3-8.24-.37a6,6,0,0,1,2.78,5.06v7.15a6,6,0,0,1-1.09,3.45,6.05,6.05,0,0,1,.63,0h4.36a6,6,0,0,1,6,6v5.51Zm-23.12,0V382.2a6,6,0,0,1,1.09-3.45,6.05,6.05,0,0,1-.63,0h-6.92a6,6,0,0,1-2.33,3.31l-1.59,1.12v4.49Zm203.56-16.8a6,6,0,0,1,5.45,3.49l.82,1.79a6,6,0,0,1,5.92-5.38l4.13,0a6,6,0,0,1,4,1.5,6,6,0,0,1,4-1.56l20.45-.17a6,6,0,0,1,3,.78c2.62-1.92,9.47-6.69,28.36-19.45l-48.34-34.61A200.1,200.1,0,0,1,405.8,370.9ZM194,359.63l-1.4-.65.15.65Zm-13.32-7.21-7.56-7.83L172,345l4.55,6.23ZM397.07,338.6a179,179,0,0,0-3.65-183.29l-.63.12a6,6,0,0,1-2.31,0,6,6,0,0,1-8-1.49l-6.76-9.09a6,6,0,0,1-1.19-3.58v-5A6,6,0,0,1,375,134l.86-2.11A175,175,0,0,0,344.29,104a170.28,170.28,0,0,0-61.24-26.43l-15.8,5.84a6,6,0,0,1-2.08.37H235.47L210,95.93a6,6,0,0,1-5.44-.14l-19.3-10.47c-3.88,1.51-7.74,3.16-11.5,4.95h0a173.08,173.08,0,0,0-36.63,23.45l-.13.39a6,6,0,0,1-3.42,3.68,6,6,0,0,1-1.54,1.94l3.86,8.46a6,6,0,0,1-2.13,7.49l-7.79,5.18a6,6,0,0,1-7-.24l-4.86-3.75A177.05,177.05,0,0,0,73.64,250a180.78,180.78,0,0,0,3,33l13,10.88-3.3-22-7-5.14A6,6,0,0,1,82,256l21.3-3.42a5.92,5.92,0,0,1,1-.08,6,6,0,0,1,4.69,2.26l1.68,2.11a6,6,0,0,1,1.36-7.07l35-31.8.77-22a6,6,0,0,1,3.82-5.38l19.12-7.42,2.9-11.25a6,6,0,0,1,2.87-3.74L201,154.46a6,6,0,0,1,2.94-.77l19,.22a6,6,0,0,1,5.53,3.84l9.56,24.83a6,6,0,0,1,.4,2.4l-1.15,27.73a6,6,0,0,1-1.09,3.21l-9.83,13.92v12.58l3.79,8.46a6,6,0,0,1-.07,5.05L225,266.6l1.88,3.44,13.3,4.66,17.43-1.36.47,0a6,6,0,0,1,4.49,2l5.93,6.7,44-11.48-5.17-5.83-15.71,1.23-.47,0a6,6,0,0,1-2-.34l-16.67-5.84a6,6,0,0,1-3.29-2.79l-4.46-8.17a6,6,0,0,1-.14-5.48l5.26-10.92-3.17-7.09a6,6,0,0,1-.52-2.45V207.13a6,6,0,0,1,1.1-3.46l9.9-14,1.08-26c0-.12,0-.23,0-.35l1.24-12.3-13.9-22.8a6,6,0,0,1,7.39-8.68l26.45,10.8a6,6,0,0,1,1.8,1.15l25.3,23.35A6,6,0,0,1,328,157l12.92,32.14,8.18,1.92a6,6,0,0,1,2.32,1.11l22.42,17.52a6,6,0,0,1,1.61,1.92l10.35,19.56a6,6,0,0,1,.14,5.34l-12,25.72-2.75,21.33,11.83,17.25a6,6,0,0,1,.7,5.42l-6.62,18.44ZM48.93,259.84q-.24-4.94-.24-9.84v0l-10.58.85Z"/><g id="colorido"><path class="cls-2" d="M122.31,398.75l-15.22-136.6-2.89-3.62L82.9,262,92,268.57l4.64,30.88-14,12.06-4,1.58A185.26,185.26,0,0,1,95,153.29l-2.22-20a197.65,197.65,0,0,0,29.57,265.43Z"/><path class="cls-3" d="M95,153.29a182.64,182.64,0,0,1,19.26-25.79l1.36-.43L115,130l7.6,5.86,7.79-5.18-4.35-9.52-.37-4.64,2.48-1.41.93-2.41v0l1.37-1.19.78.77.66-2a179.05,179.05,0,0,1,39.23-25.38L169.62,71.1a192.41,192.41,0,0,0-56.43,38.57c-1.24,1.3-2.48,2.56-3.68,3.72a195.5,195.5,0,0,0-16.77,19.94Z"/><path class="cls-3" d="M151.31,404.15,161,398l29.6-20.82-3.83-16.84-13.91-3.88L157,334.7l12.46-2.61,16.6,17.2,10.35,4.82,4.79.21-10.41-93.46-9.83-88.26-1.57.88-3.67,14.23-22,8.54-.86,24.52L116,254.28l8.62,14.67,4.31,49.48,16.47,9.88L126,320.17l-11.18-48.36-7.7-9.66,15.22,136.6a190.4,190.4,0,0,0,88.63,43.16l-1.53-13.72A176.91,176.91,0,0,1,151.31,404.15Z"/><polygon class="cls-4" points="274.44 254.13 279.34 255.85 273.67 204.96 272.14 207.13 272.14 222.89 276.45 232.53 269.98 245.96 274.44 254.13"/><path class="cls-4" d="M171.15,84.84q7.09-3.36,14.51-6.11l21.72,11.78,26.73-12.72h25.39L257,54.89q-4.9-.25-9.87-.25A189.39,189.39,0,0,0,169.62,71.1Z"/><path class="cls-4" d="M299.64,438l-5-45.1-7,1.5-32.77,34.15,6.29,3.11q-6.94.54-14,.55a177.72,177.72,0,0,1-37.68-4l1.53,13.72a191.14,191.14,0,0,0,88.7-3.91Z"/><polygon class="cls-4" points="216.01 354.99 223.12 357.61 239.08 356.52 244.04 345.35 267.75 329.81 268.19 318.42 274.01 309.64 277.6 295.96 268.4 291 258.05 279.32 239.37 280.78 222.69 274.94 218.24 266.77 224.71 253.34 220.39 243.71 220.39 227.94 231.32 212.47 232.47 184.74 222.91 159.91 203.94 159.69 180.93 172.6 190.76 260.87 201.18 354.32 216.01 354.99"/><path class="cls-5" d="M373.34,329.33,370,327l2.38-6.64L369.07,291l-4.08-6h0l1.83-14.23L364,245.4l-4.37-39.2-11.88-9.28-11.21-2.63-14.09-35-25.3-23.35L270.7,125.1l14.95,24.52-1.44,14.3-1.15,27.73L273.67,205l5.67,50.89L291.11,260l18.69-1.46,10.35,11.68,9.2,5,8,2.63,3.16,7.3h18.39l11,22.42-30.83,16.85,23.5,20.14-23.5,13.14-13.88,13.14-4.89,16.64-25.75,5.51,5,45.1a191.33,191.33,0,0,0,80.59-46.92Z"/><path class="cls-5" d="M265.17,77.79l17.42-6.44a177,177,0,0,1,65.1,27.71l-1.87-16.8A189.29,189.29,0,0,0,257,54.89l2.55,22.9Z"/><polygon class="cls-6" points="368.15 260.55 380.51 233.99 370.17 214.43 359.62 206.19 363.99 245.4 366.83 270.84 368.15 260.55"/><path class="cls-6" d="M439.47,250A195.77,195.77,0,0,0,345.82,82.26l1.87,16.8a181,181,0,0,1,35.07,31.62l-2.24,5.53v5l6.76,9.09,1.19-4.64,3.18,2.22v1.62l4.18-.81V148a184.9,184.9,0,0,1,3.08,199.23l-25.57-17.88,6.88,61.75A196.23,196.23,0,0,0,439.47,250Z"/><polygon class="cls-6" points="378.12 304.21 369.07 291.02 372.34 320.32 378.12 304.21"/><polygon points="434 296 430.88 307.52 493 352 434 296"/><path d="M37.9,415.67H30.32v-50H37.9Zm-7.58,11v-7.5H66.4v7.5Z"/><path d="M81.48,365.63h8v7.5H84.36l-5.58,5.58v34.61l5.84,5.84H89.5v7.5H82L71.28,415.93v-40.1Zm29.64,19.44h-7.5v-7.5l-4.36-4.45H93v-7.5h9.5l8.63,8.63ZM93,426.65v-7.5h4.18l6.45-6.45V399.63H93v-5.32h18.13v32.34h-7.24v-6.89L97,426.65Z"/><path d="M120.1,365.63h7.58v61H120.1Zm11.07,7.5v-7.5h16.56l8.63,8.63v14.38l-5.58,5.67,6,5.93v17.35l-9.15,9.07H131.17v-7.5h13.42l4.62-4.71v-12.2l-4.36-4.36H131.17v-6.62h13.42L149,386.9v-9.33l-4.36-4.45Z"/><path d="M203.34,372.78h-41.4v-7.15h41.4Zm-24.49,53.87V376.27h7.58v50.38Z"/><path d="M224.84,398.15H213.24v11.51h-4.36V398.15H197.38V393.7h11.51V382.2h4.36V393.7h11.59Z"/><path d="M493,352s-35.3,23.78-36.24,24.81a13.71,13.71,0,0,0-3.51,7.5,11.87,11.87,0,0,0,.18,4.19l3.45,15.89a9.31,9.31,0,0,0,1.55,3.54,7.58,7.58,0,0,0,2.56,2.26,7,7,0,0,0,3.22.81,8,8,0,0,0,3.59-.85,10.57,10.57,0,0,0,3.23-2.4,28.94,28.94,0,0,0,3.12-5.1Zm-22.06,48.24a8.76,8.76,0,0,1-.71,2.44,7.9,7.9,0,0,1-1.38,2.07,6.35,6.35,0,0,1-1.93,1.44,4.8,4.8,0,0,1-2.13.5,4.19,4.19,0,0,1-1.94-.49,4.55,4.55,0,0,1-1.54-1.36,5.62,5.62,0,0,1-.93-2.11l-3.45-15.89a6.87,6.87,0,0,1-.1-2.51,8.45,8.45,0,0,1,.72-2.42,8.3,8.3,0,0,1,1.38-2.07,6.18,6.18,0,0,1,1.93-1.45,4.79,4.79,0,0,1,2.13-.5,4.18,4.18,0,0,1,1.94.49,4.55,4.55,0,0,1,1.54,1.36,5.65,5.65,0,0,1,.93,2.11l3.45,15.89A6.91,6.91,0,0,1,470.94,400.24Z"/><line x1="474.5" y1="398.54" x2="474.77" y2="390.29"/><path d="M248.31,386.4l-6,10.74-6.21-10.64.24,28.56-4.08,0-.31-36.72,4.08,0,6.22,12.19,6-12.29,4.08,0,.31,36.72-4.08,0Z"/><path d="M260.42,388.33a10,10,0,0,1,.77-4,10.2,10.2,0,0,1,5.38-5.47,10.28,10.28,0,0,1,8-.07,10.2,10.2,0,0,1,5.47,5.38,10,10,0,0,1,.83,4l.14,16.32a10,10,0,0,1-.77,4,10.2,10.2,0,0,1-5.38,5.47,10.28,10.28,0,0,1-8,.07,10.2,10.2,0,0,1-5.47-5.38,9.94,9.94,0,0,1-.83-4Zm10.15-6.21a6,6,0,0,0-2.37.5,6.19,6.19,0,0,0-3.24,3.29,5.94,5.94,0,0,0-.46,2.38l.14,16.32a5.94,5.94,0,0,0,.5,2.37,6.19,6.19,0,0,0,3.29,3.24,6.15,6.15,0,0,0,4.75,0,6.19,6.19,0,0,0,3.24-3.29,6,6,0,0,0,.46-2.38l-.14-16.32a6,6,0,0,0-.5-2.37,6.19,6.19,0,0,0-3.29-3.24A6,6,0,0,0,270.56,382.13Z"/><path d="M292.82,377.86l6.35,26.81,5.89-26.91,4.08,0-7.85,36.79-4.08,0-8.47-36.65Z"/><path d="M317.42,410.3l8.16-.07-.24-28.56-8.16.07,0-4.08,20.4-.17,0,4.08-8.16.07.24,28.56,8.16-.07,0,4.08-20.4.17Z"/><path d="M361.94,385.44l-6,10.74-6.21-10.64.24,28.56-4.08,0-.31-36.72,4.08,0,6.22,12.19,6-12.29,4.08,0,.31,36.72-4.08,0Z"/><path d="M374,377.17l20.4-.17,0,4.08-16.32.14.1,12.24,12.24-.1,0,4.08-12.24.1.1,12.24,16.32-.14,0,4.08-20.4.17Z"/><path d="M402.67,413.66l-.31-36.72,4.08,0L418.91,404l-.23-27.17,4.08,0,.31,36.72-4.08,0-12.47-27.06.23,27.17Z"/><path d="M439,380.71l-8.16.07,0-4.08,20.4-.17,0,4.08-8.16.07.28,32.64-4.08,0Z"/><polygon points="304 218 302 253 316 248 346 268 120 327 23 246 54.7 243.45 56.02 228.91 7 240 112 360 362 271 327.38 242 340 235 304 218"/></g></svg>